<svg width="20" height="20" viewBox="0 0 20 20" fill="none" xmlns="http://www.w3.org/2000/svg">
<path d="M6.96289 3.64648C7.02696 3.77759 7.08688 3.90645 7.13477 4.02148L7.38574 4.62402L8.03027 4.52539C9.32625 4.32731 10.6444 4.32654 11.9727 4.52539L12.6104 4.62109L12.8633 4.02734C12.9132 3.91007 12.9727 3.77959 13.0352 3.64844C13.9985 3.8546 14.9258 4.15779 15.8047 4.54492C17.6338 7.30609 18.5487 10.3803 18.2832 13.9043C17.0863 14.7432 15.9245 15.3117 14.7734 15.7148C14.7249 15.6399 14.6757 15.5653 14.6289 15.4893C14.8773 15.37 15.1214 15.2422 15.3604 15.1025C15.9245 14.7728 15.9428 13.9899 15.4424 13.6172V13.6162C15.3578 13.5533 15.2725 13.4866 15.1904 13.4189L15.1797 13.4102L15.0781 13.3408C14.836 13.1975 14.5282 13.1703 14.251 13.2988V13.2979C11.509 14.5647 8.51432 14.5669 5.73242 13.2969L5.72656 13.2939L5.61035 13.251C5.3349 13.1714 5.02929 13.2282 4.79688 13.4199C4.71683 13.4859 4.63076 13.5524 4.54297 13.6182C4.02897 14.003 4.08124 14.783 4.62793 15.1025L4.63379 15.1055C4.8708 15.2414 5.11407 15.3701 5.36328 15.4902C5.31652 15.5661 5.26659 15.6401 5.21777 15.7148C4.07029 15.3115 2.90743 14.7438 1.70996 13.9043C1.48673 10.8348 2.10356 7.73889 4.1875 4.54492C5.06868 4.15642 5.99792 3.85234 6.96289 3.64648ZM1.73828 14.2607L1.7373 14.2549L1.73633 14.2529C1.73658 14.2556 1.73805 14.2581 1.73828 14.2607ZM6.95898 7.7207C5.49074 7.7207 4.47754 9.01932 4.47754 10.4023C4.47775 11.7902 5.50977 13.083 6.95898 13.083C8.42308 13.0828 9.43304 11.7918 9.43848 10.4131L9.43945 10.4141C9.45936 9.02228 8.4287 7.7209 6.95898 7.7207ZM13.0508 7.7207C11.5825 7.7207 10.5693 9.01934 10.5693 10.4023C10.5695 11.7902 11.6016 13.083 13.0508 13.083C14.5244 13.0829 15.5249 11.7894 15.5303 10.4131L15.5312 10.4141C15.5511 9.02224 14.5207 7.72077 13.0508 7.7207Z" fill="#7B80A3" stroke="#7B80A3" stroke-width="1.66667"></path>
</svg>