<svg width="48" height="48" viewBox="0 0 48 48" fill="none" xmlns="http://www.w3.org/2000/svg">
<path d="M18.2775 7.37022L25.4268 7.36825L28.0886 7.3676C29.276 7.36755 30.2112 7.32483 31.3816 7.60471C32.9989 7.98783 34.4816 8.8032 35.6715 9.96362C37.3502 11.637 38.3068 13.9015 38.3358 16.2717C38.3553 18.6662 37.4241 20.9706 35.7463 22.6792C34.0783 24.3596 31.8166 25.3168 29.449 25.3441L22.1106 25.3444L19.5637 25.345C18.2881 25.3452 17.4422 25.396 16.1758 25.0831C14.6163 24.697 13.1878 23.9026 12.037 22.7816C8.485 19.3224 8.44893 13.5864 11.9139 10.0511C13.5964 8.35006 15.885 7.38592 18.2775 7.37022ZM29.686 22.6169C29.9195 22.5944 30.197 22.5721 30.4244 22.5307C31.9085 22.2635 33.2471 21.4717 34.1961 20.2996C36.4129 17.598 35.9472 13.6681 33.252 11.4714C32.4714 10.8401 31.5489 10.408 30.5644 10.2123C29.8177 10.064 29.0077 10.0964 28.2468 10.0964L25.7328 10.0963L20.6982 10.0964C19.8082 10.0963 18.8658 10.0813 17.9793 10.1C17.7138 10.1284 17.4377 10.1506 17.1751 10.201C13.999 10.8116 11.8061 13.7119 12.1039 16.9391C12.3602 19.7158 14.3805 21.9462 17.1106 22.5037C17.8069 22.6459 18.3934 22.6164 19.0988 22.6157L20.9269 22.6158L26.7838 22.6163L28.6966 22.6161C29.0123 22.616 29.3764 22.6049 29.686 22.6169Z" fill="#FEFEFE"></path>
<path d="M18.4163 14.847C19.2492 14.7092 20.0368 15.2705 20.1784 16.1028C20.3199 16.935 19.7622 17.7251 18.9306 17.8705C18.0936 18.0168 17.2973 17.4547 17.1548 16.6171C17.0123 15.7794 17.578 14.9856 18.4163 14.847Z" fill="#FEFEFE"></path>
<path d="M28.9243 14.8469C29.7572 14.7093 30.5446 15.2707 30.6861 16.1029C30.8275 16.9351 30.2699 17.7252 29.4383 17.8705C28.6014 18.0168 27.8049 17.4546 27.6626 16.6169C27.5201 15.7792 28.0859 14.9854 28.9243 14.8469Z" fill="#FEFEFE"></path>
<path d="M11.5839 27.1913L13.3373 27.1888C13.6727 27.1887 14.2871 27.1681 14.5903 27.2409C14.8239 27.2959 15.038 27.4135 15.2096 27.5813C15.4753 27.8376 15.6275 28.1893 15.6323 28.5584C15.6355 28.9184 15.4784 29.2689 15.2263 29.5226C15.0482 29.6993 14.8247 29.8229 14.5805 29.8801C14.3195 29.9413 13.7899 29.9216 13.4987 29.921L12.0621 29.9165C12.0947 30.2901 12.0774 30.9002 12.0773 31.289L12.0762 33.7566L12.0772 35.8587C12.0775 36.1791 12.0948 36.7212 12.063 37.0242C12.4503 37.0069 14.256 36.9921 14.5658 37.0647C14.7939 37.1172 15.0053 37.2256 15.1808 37.3804C15.4726 37.6392 15.6082 37.9747 15.6325 38.3582C15.6241 38.7275 15.5395 38.9982 15.2858 39.2826C15.0407 39.5594 14.6944 39.7258 14.325 39.7443C13.9421 39.7642 13.3149 39.7457 12.9197 39.7438C12.4161 39.7415 11.4962 39.7872 11.051 39.6835C10.6805 39.599 10.3383 39.4198 10.0579 39.1631C9.61172 38.7534 9.35221 38.1708 9.34507 37.5704C9.3376 36.9408 9.34253 36.3042 9.34325 35.674L9.34327 32.1594L9.34156 30.1914C9.3413 29.6671 9.29414 29.1421 9.47756 28.6429C9.819 27.7141 10.6149 27.2235 11.5839 27.1913Z" fill="#FEFEFE"></path>
<path d="M23.4581 28.0559C23.9418 27.9877 24.438 28.1935 24.7393 28.5764C24.96 28.861 25.0597 29.2208 25.0172 29.5785C24.9867 29.8219 24.8876 30.0518 24.7313 30.241C24.5076 30.5097 23.6176 31.2251 23.3021 31.4805C22.5253 32.1096 21.724 32.8318 20.9372 33.4353C21.3647 33.7274 21.9756 34.2763 22.3959 34.6244L23.8749 35.857C24.1093 36.0547 24.6766 36.4819 24.8276 36.7415C25.4638 37.8345 24.4788 39.0786 23.2859 38.7623C22.8022 38.5812 22.5599 38.3131 22.1669 37.9865L20.644 36.7159L18.8994 35.2636C18.6496 35.0569 18.1113 34.6346 17.902 34.4095C17.7298 34.2223 17.6082 33.994 17.5487 33.7466C17.2955 32.6793 18.2726 32.1035 18.9753 31.5194L20.7046 30.0802L22.0451 28.9614C22.496 28.5853 22.8688 28.1899 23.4581 28.0559Z" fill="#FEFEFE"></path>
<path d="M31.9391 28.0558C32.0617 28.0414 32.2006 28.0383 32.3228 28.0567C32.5335 28.0885 32.7343 28.1681 32.9096 28.2894C33.208 28.4936 33.5975 28.846 33.8863 29.0876L35.4335 30.3758L36.9638 31.6515C37.6078 32.1844 38.4248 32.6651 38.2734 33.6361C38.169 34.3059 37.6914 34.6064 37.2116 35.0049L35.9496 36.0545L34.0041 37.6765C33.6676 37.9571 33.2764 38.3048 32.9323 38.5589C32.6487 38.7484 32.3438 38.8454 32.0009 38.8105C31.6422 38.773 31.3131 38.5947 31.0854 38.3147C30.8508 38.0259 30.7415 37.6553 30.7819 37.2853C30.8118 37.039 30.9099 36.8061 31.0651 36.6127C31.2728 36.3567 32.1045 35.6898 32.4033 35.4431C33.2082 34.7786 34.0286 34.0731 34.8484 33.4298C33.9924 32.7589 33.169 32.0262 32.3264 31.3362C31.9643 30.988 31.4336 30.6818 31.1163 30.2939C30.38 29.394 30.8741 28.3049 31.9391 28.0558Z" fill="#FEFEFE"></path>
</svg>