<svg width="48" height="48" viewBox="0 0 48 48" fill="none" xmlns="http://www.w3.org/2000/svg">
<g clip-path="url(#clip0_31915_19240)">
<path d="M23.6209 9C16.5379 9 16.4618 11.7494 16.4618 12.3153C16.4618 13.1738 16.4618 15.75 16.4618 15.75H23.7572V16.7812C23.7572 16.7812 16.1612 16.7812 13.5641 16.7812C11.3961 16.7812 8.67188 18.0993 8.67188 23.9403C8.67188 29.3056 10.797 31.3805 12.9417 31.3805C13.5785 31.3805 15.4901 31.3805 15.4901 31.3805C15.4901 31.3805 15.4901 28.7174 15.4901 27.801C15.4901 26.3035 16.2321 23.5312 19.6917 23.5312C24.0308 23.5312 25.1383 23.5312 26.9274 23.5312C27.9916 23.5312 30.9927 23.0686 30.9927 19.6023C30.9927 15.9335 30.9927 14.7232 30.9927 12.9971C30.993 12.1372 30.846 9 23.6209 9ZM19.5981 11.3097C20.3241 11.3097 20.9108 11.8961 20.9108 12.6224C20.9108 13.3481 20.3241 13.935 19.5981 13.935C18.8721 13.935 18.2855 13.3484 18.2855 12.6224C18.2855 11.8961 18.8721 11.3097 19.5981 11.3097Z" fill="#EDEEF7"></path>
<path d="M23.7237 39.0002C30.8034 39.0002 30.8915 36.199 30.8915 35.6849C30.8915 34.8264 30.8915 32.2502 30.8915 32.2502H23.5873V31.219C23.5873 31.219 31.2324 31.219 33.7805 31.219C35.9647 31.219 38.6727 29.8679 38.6727 24.0599C38.6727 17.6994 35.7987 16.6196 34.4028 16.6196C33.7657 16.6196 31.8545 16.6196 31.8545 16.6196C31.8545 16.6196 31.8545 19.4058 31.8545 20.1992C31.8545 21.6967 31.1369 24.469 27.6528 24.469C23.3137 24.469 22.3412 24.469 20.4168 24.469C19.3554 24.469 16.3516 24.9861 16.3516 28.3979C16.3516 32.3456 16.3516 33.3793 16.3516 35.0031C16.3516 36.4294 17.2232 39.0002 23.7237 39.0002ZM27.7467 36.6904C27.0207 36.6904 26.434 36.1038 26.434 35.3778C26.434 34.6518 27.0204 34.0652 27.7467 34.0652C28.4724 34.0652 29.0593 34.6518 29.0593 35.3778C29.0593 36.1038 28.4724 36.6904 27.7467 36.6904Z" fill="#9DA1BD"></path>
</g>
<defs>
<clipPath id="clip0_31915_19240">
<rect width="30" height="30" fill="white" transform="translate(8.67188 9)"></rect>
</clipPath>
</defs>
</svg>