<svg width="2623" height="672" viewBox="0 0 2623 672" fill="none" xmlns="http://www.w3.org/2000/svg">
<rect width="2623" height="672" fill="white"></rect>
<path d="M1539.99 429.759C1541.08 431.668 1539.77 434.091 1537.58 434.091H1480.23C1479.21 434.091 1478.26 433.504 1477.75 432.622L1449.44 379.387C1448.06 376.817 1444.12 377.771 1444.12 380.708V431.301C1444.12 432.843 1442.88 434.165 1441.27 434.165H1391.88C1390.35 434.165 1389.03 432.916 1389.03 431.301V202.864C1389.03 201.322 1390.27 200 1391.88 200H1441.27C1442.8 200 1444.12 201.248 1444.12 202.864V309.482C1444.12 312.419 1448.06 313.448 1449.44 310.804L1477.75 257.568C1478.26 256.614 1479.21 256.1 1480.23 256.1H1537.58C1539.77 256.1 1541.16 258.523 1539.99 260.432L1490.37 343.627C1489.87 344.508 1489.87 345.683 1490.37 346.564L1539.99 429.759Z" fill="#8023C3"></path>
<path d="M1724.79 431.082C1724.79 432.624 1723.55 433.945 1721.94 433.945H1672.55C1671.02 433.945 1669.7 432.697 1669.7 431.082V428.438C1669.7 427.337 1668.54 426.676 1667.59 427.19C1653.43 435.267 1637.38 439.453 1620.96 439.453C1569.16 439.453 1527.06 397.671 1527.06 346.271C1527.06 294.871 1569.16 253.09 1620.96 253.09C1637.38 253.09 1653.36 257.349 1667.59 265.353C1668.54 265.867 1669.7 265.206 1669.7 264.104V258.671C1669.7 257.129 1670.94 255.807 1672.55 255.807H1721.94C1723.48 255.807 1724.79 257.055 1724.79 258.671V431.082ZM1669.7 346.345C1669.7 322.774 1653.21 303.609 1629.43 303.609C1605.64 303.609 1586.38 322.774 1586.38 346.345C1586.38 369.915 1605.72 389.08 1629.43 389.08C1653.14 389.08 1669.7 369.915 1669.7 346.345Z" fill="#8023C3"></path>
<path d="M1933.85 259.33V417.055C1933.85 478.295 1901.09 511.999 1841.55 511.999H1840.02C1839.36 511.999 1838.63 511.999 1837.83 511.999C1824.48 511.999 1791.35 510.311 1753.41 475.578C1752.1 474.403 1752.17 472.274 1753.56 471.172L1789.89 442.976C1791.06 442.094 1792.66 442.241 1793.61 443.269C1801.49 451.42 1819 466.032 1841.62 464.564C1856.43 463.609 1868.47 457.955 1874.6 449.144C1878.76 443.196 1880.07 436.073 1878.61 428.217C1878.39 427.262 1877.37 426.748 1876.5 427.262C1862.41 435.192 1846.51 439.451 1830.24 439.451C1778.66 439.451 1736.7 397.817 1736.7 346.564C1736.7 295.31 1778.66 253.676 1830.24 253.676C1846.58 253.676 1862.56 257.861 1876.64 265.939C1877.59 266.453 1878.76 265.792 1878.76 264.69V259.33C1878.76 257.788 1880 256.466 1881.6 256.466H1930.85C1932.39 256.466 1933.7 257.715 1933.7 259.33H1933.85ZM1878.98 346.564C1878.98 341.497 1878.1 336.504 1876.28 331.805C1870.08 315.209 1856.73 303.975 1838.85 303.975C1815.21 303.975 1795.95 323.066 1795.95 346.564C1795.95 370.061 1814.19 388.418 1837.53 389.152H1837.9C1837.9 389.152 1838.56 389.152 1838.85 389.152C1862.49 389.152 1878.98 370.061 1878.98 346.564Z" fill="#8023C3"></path>
<path d="M2133.74 346.416C2133.74 351.556 2133.15 357.577 2132.2 362.938C2131.99 364.333 2130.82 365.288 2129.43 365.288H2005.55C2003.35 365.288 2001.97 367.711 2003.14 369.62C2010.72 382.617 2024.37 390.694 2039.4 390.694C2052.17 390.694 2064.13 385.04 2072.59 374.099C2073.25 373.291 2074.27 372.851 2075.37 372.997L2122.79 381.589C2124.62 381.956 2125.64 383.938 2124.83 385.627C2123.74 387.83 2122.43 390.62 2121.62 392.015L2120.82 393.337C2120.09 394.586 2119.36 395.761 2118.49 397.156C2117.39 398.845 2116.37 400.313 2115.35 401.708L2114.77 402.516C2114.4 402.956 2114.11 403.397 2113.75 403.838L2113.23 404.498C2112.58 405.306 2111.92 406.114 2111.34 406.848L2110.75 407.509C2109.73 408.684 2108.64 409.859 2107.55 411.034L2106.89 411.695C2106.16 412.429 2105.43 413.163 2104.62 413.897L2104.41 414.118C2103.6 414.925 2102.73 415.66 2101.85 416.467L2100.9 417.275L2099.81 416.32L2100.76 417.422C2099.45 418.523 2098.21 419.551 2096.96 420.506L2095.87 421.314C2094.41 422.415 2092.95 423.443 2091.42 424.398L2090.98 424.691C2089.23 425.793 2087.48 426.894 2085.73 427.849L2085.22 428.143C2084.78 428.363 2084.34 428.583 2083.9 428.803L2083.61 428.95C2082.81 429.391 2082.08 429.758 2081.35 430.125L2080.91 430.345C2079.23 431.153 2077.63 431.887 2076.1 432.548L2075.8 432.695C2074.71 433.136 2073.84 433.503 2072.89 433.87L2071.72 434.311C2070.55 434.751 2069.39 435.118 2068.22 435.485H2068C2066.76 435.926 2065.45 436.293 2063.91 436.734L2062.82 437.027C2060.12 437.688 2057.42 438.276 2054.72 438.643L2053.7 438.79C2050.85 439.23 2048.01 439.524 2045.24 439.671H2044.21C2042.54 439.818 2041.15 439.818 2039.91 439.818C2038.67 439.818 2037.21 439.818 2035.53 439.671C2035.24 439.671 2034.87 439.671 2034.58 439.671H2034.29C2033.2 439.598 2032.17 439.524 2031.08 439.377H2030.71C2030.71 439.377 2030.13 439.304 2029.77 439.23C2028.23 439.084 2026.85 438.936 2025.68 438.716L2024.95 438.569C2023.78 438.422 2022.69 438.202 2021.52 437.982L2020.28 437.688C2019.26 437.468 2018.24 437.248 2017.22 437.027H2016.93C2016.93 437.027 2016.34 436.807 2016.05 436.734C2014.52 436.367 2013.28 436 2012.04 435.632C2010.72 435.192 2009.41 434.751 2008.1 434.311C2007.81 434.164 2007.51 434.09 2007.15 433.943H2006.93C2005.98 433.503 2005.03 433.136 2004.08 432.768H2003.79C2003.79 432.768 2003.21 432.402 2002.92 432.328C2001.68 431.814 2000.44 431.227 1999.2 430.639H1999.05C1997.95 430.052 1996.72 429.391 1995.55 428.803C1995.26 428.656 1994.96 428.51 1994.67 428.363L1994.45 428.216C1993.58 427.702 1992.7 427.261 1991.83 426.747L1990.8 426.16C1989.64 425.426 1988.54 424.765 1987.38 423.957C1976.21 416.467 1966.58 406.408 1959.58 394.953C1958.99 393.998 1958.41 393.044 1957.9 392.015L1957.68 391.575C1957.17 390.62 1956.66 389.666 1956.15 388.711L1955.86 388.197C1955.86 388.197 1955.57 387.61 1955.42 387.316C1953.67 383.718 1952.06 379.826 1950.75 375.788C1950.02 373.585 1949.44 371.676 1949 369.913C1948.64 368.445 1948.27 366.903 1947.98 365.434C1947.03 360.882 1946.44 356.182 1946.23 351.483C1946.15 349.867 1946.08 348.252 1946.08 346.71C1946.08 345.168 1946.08 343.479 1946.23 341.937C1946.66 333.713 1948.2 325.489 1950.82 317.559C1951.7 314.989 1952.58 312.639 1953.45 310.436C1953.96 309.188 1954.54 307.94 1955.13 306.765C1955.27 306.471 1955.42 306.177 1955.57 305.883L1955.93 305.149C1955.93 305.149 1956.22 304.562 1956.37 304.268C1956.52 303.974 1956.66 303.681 1956.81 303.387L1957.61 301.845C1958.26 300.67 1958.92 299.495 1959.65 298.32C1966.66 286.865 1976.29 276.879 1987.45 269.316C1988.54 268.582 1989.71 267.847 1990.88 267.113L1991.9 266.526C1992.78 266.012 1993.65 265.498 1994.53 265.057L1994.74 264.91C1994.74 264.91 1995.33 264.617 1995.62 264.47C1996.79 263.809 1998.03 263.221 1999.27 262.634C2000.51 262.046 2001.75 261.459 2002.99 260.945C2003.28 260.798 2003.57 260.725 2003.87 260.578H2004.16C2005.11 260.064 2006.05 259.697 2007 259.33H2007.29C2007.29 259.33 2007.88 259.036 2008.17 258.889C2009.48 258.448 2010.8 258.008 2012.11 257.567C2013.42 257.127 2014.81 256.76 2016.12 256.466C2016.42 256.392 2016.71 256.319 2017 256.246H2017.29C2018.31 255.952 2019.33 255.658 2020.36 255.511L2021.09 255.364C2022.32 255.071 2024.29 254.777 2025.54 254.557H2025.76C2026.99 254.337 2028.31 254.19 2029.91 254.043H2030.86L2031.15 253.896C2032.17 253.823 2033.27 253.749 2034.37 253.676H2034.58C2034.58 253.676 2035.24 253.675 2035.6 253.602C2037.21 253.602 2038.67 253.529 2039.98 253.529C2041.3 253.529 2042.61 253.529 2044.29 253.602H2045.31C2048.15 253.823 2051 254.116 2053.7 254.483L2054.79 254.63C2057.49 255.071 2060.19 255.585 2062.82 256.246L2063.99 256.539C2065.52 256.907 2066.83 257.274 2068 257.714H2068.22C2069.46 258.155 2070.63 258.595 2071.72 258.962C2072.08 259.11 2072.45 259.183 2072.81 259.33C2073.91 259.697 2074.79 260.064 2075.73 260.505L2076.17 260.725C2077.7 261.386 2079.31 262.12 2080.91 262.854L2081.35 263.075C2082.15 263.442 2082.88 263.809 2083.61 264.249L2083.83 264.396L2083.25 265.644L2083.98 264.47C2084.41 264.69 2084.85 264.91 2085.29 265.204C2086.9 266.085 2089.45 267.627 2090.98 268.655L2091.2 268.802C2092.81 269.83 2094.41 270.931 2095.87 272.033L2096.09 272.253C2096.09 272.253 2096.67 272.694 2096.96 272.914C2098.28 273.869 2099.52 274.896 2100.83 275.998L2101.56 276.659C2102.58 277.467 2103.53 278.348 2104.48 279.229L2104.7 279.449C2105.43 280.183 2106.23 280.918 2106.96 281.652L2107.55 282.239C2108.71 283.488 2109.81 284.589 2110.75 285.764L2109.81 286.865L2110.9 285.911L2111.41 286.498C2112.07 287.233 2112.65 287.967 2113.31 288.775L2113.89 289.509C2114.62 290.39 2115.35 291.345 2116.01 292.299V292.446C2116.66 293.181 2117.25 293.988 2117.76 294.722L2118.78 296.265C2119.22 296.925 2119.66 297.66 2120.09 298.32L2121.84 301.184C2125.35 307.352 2128.12 313.887 2130.09 320.569C2132.64 329.16 2133.88 337.972 2133.88 346.857L2133.74 346.416ZM2078.36 322.772C2076.17 309.628 2061.07 299.422 2041.88 299.422C2024.44 299.422 2007.88 309.555 2005.47 322.699C2005.18 324.461 2006.49 326.076 2008.24 326.076H2075.51C2077.26 326.076 2078.58 324.461 2078.29 322.772H2078.36Z" fill="#8023C3"></path>
<path d="M2306.95 330.996V431.153C2306.95 432.695 2305.71 434.016 2304.11 434.016H2251.36C2249.83 434.016 2248.51 432.768 2248.51 431.153V333.786C2248.51 327.178 2248.15 319.615 2245.38 313.52C2244.13 310.95 2242.45 308.747 2240.41 307.205C2237.13 304.635 2232.83 303.313 2227.35 303.313C2217.14 303.313 2209.26 306.838 2206.78 312.492C2203.93 318.66 2203.93 327.031 2203.93 333.786V431.153C2203.93 432.695 2202.69 434.016 2201.09 434.016H2148.33C2146.8 434.016 2145.49 432.768 2145.49 431.153V258.889C2145.49 257.347 2146.73 256.025 2148.33 256.025H2197.73C2199.26 256.025 2200.58 257.274 2200.58 258.889V263.662C2200.58 264.763 2201.82 265.497 2202.76 264.837C2242.6 237.227 2281.34 267.847 2281.78 268.214C2283.17 269.316 2284.55 270.491 2285.8 271.739C2303.82 290.023 2306.88 304.782 2306.88 330.996H2306.95Z" fill="#8023C3"></path>
<path d="M2422.56 391.064L2416.22 433.139C2416 434.46 2414.9 435.488 2413.59 435.562C2407.53 435.929 2391.34 436.81 2386.37 436.81C2386.01 436.81 2385.64 436.81 2385.43 436.81C2355.37 435.195 2339.53 419.701 2339.53 391.945V306.474C2339.53 304.932 2338.29 303.61 2336.69 303.61H2318.3C2316.77 303.61 2315.46 302.362 2315.46 300.746V258.672C2315.46 257.13 2316.7 255.808 2318.3 255.808H2336.69C2338.22 255.808 2339.53 254.56 2339.53 252.944V204.187C2339.53 202.645 2340.77 201.324 2342.38 201.324H2391.77C2393.31 201.324 2394.62 202.572 2394.62 204.187V253.018C2394.62 254.56 2395.86 255.881 2397.46 255.881H2415.85C2417.38 255.881 2418.7 257.13 2418.7 258.745V300.82C2418.7 302.362 2417.46 303.684 2415.85 303.684H2397.46C2395.93 303.684 2394.62 304.932 2394.62 306.547C2394.62 321.306 2394.62 364.996 2394.62 365.437V366.685C2394.4 372.119 2394.18 379.535 2398.49 383.941C2401.04 386.511 2404.98 387.833 2410.16 387.833H2419.79C2421.54 387.833 2422.86 389.375 2422.56 391.064Z" fill="#8023C3"></path>
<rect x="1292.67" y="200" width="8" height="240" fill="#151927"></rect>
<path fill-rule="evenodd" clip-rule="evenodd" d="M1096.28 338.918C1103.08 338.918 1109.08 340.485 1114.28 343.619C1119.48 346.686 1123.55 350.953 1126.48 356.421C1129.41 361.822 1130.88 368.056 1130.88 375.124C1130.88 382.192 1129.41 388.459 1126.48 393.927C1123.55 399.394 1119.48 403.661 1114.28 406.729C1109.14 409.796 1103.21 411.329 1096.48 411.329C1089.67 411.329 1083.64 409.796 1078.37 406.729C1073.11 403.661 1068.97 399.394 1065.97 393.927C1063.04 388.459 1061.57 382.192 1061.57 375.124C1061.57 368.056 1063.04 361.822 1065.97 356.421C1068.97 350.953 1073.07 346.686 1078.27 343.619C1083.47 340.485 1089.47 338.918 1096.28 338.918ZM1096.28 347.919C1091.47 347.919 1087.21 349.086 1083.47 351.42C1079.74 353.754 1076.81 356.987 1074.67 361.121C1072.61 365.188 1071.57 369.857 1071.57 375.124C1071.57 380.458 1072.64 385.158 1074.77 389.226C1076.91 393.293 1079.84 396.493 1083.57 398.827C1087.37 401.161 1091.67 402.328 1096.48 402.328C1101.28 402.328 1105.51 401.161 1109.18 398.827C1112.84 396.493 1115.71 393.293 1117.78 389.226C1119.85 385.158 1120.88 380.458 1120.88 375.124C1120.88 369.857 1119.81 365.188 1117.68 361.121C1115.61 356.987 1112.71 353.754 1108.98 351.42C1105.31 349.086 1101.08 347.919 1096.28 347.919Z" fill="#151927"></path>
<path d="M1043.97 349.118H1011.36V371.122H1039.77V380.124H1011.36V410.128H1001.56V340.117H1043.97V349.118Z" fill="#151927"></path>
<path fill-rule="evenodd" clip-rule="evenodd" d="M1177.71 340.117C1182.38 340.117 1186.48 341.051 1190.01 342.918C1193.62 344.718 1196.42 347.252 1198.42 350.519C1200.48 353.719 1201.52 357.453 1201.52 361.721C1201.52 365.921 1200.42 369.656 1198.22 372.923C1196.08 376.19 1193.15 378.757 1189.42 380.624C1188.77 380.934 1188.11 381.214 1187.44 381.471L1204.32 410.128H1193.22L1177.65 383.313C1177.37 383.32 1177.09 383.324 1176.81 383.324H1163.91V410.128H1154.11V340.117H1177.71ZM1163.91 374.322H1178.61C1181.01 374.322 1183.15 373.789 1185.01 372.723C1186.95 371.589 1188.48 370.089 1189.62 368.222C1190.82 366.288 1191.42 364.121 1191.42 361.721C1191.42 357.987 1190.12 354.953 1187.51 352.619C1184.91 350.285 1181.55 349.118 1177.41 349.118H1163.91V374.322Z" fill="#151927"></path>
<path d="M226.984 228.672C231.518 228.672 235.452 229.405 238.786 230.872C242.12 232.272 244.854 234.139 246.987 236.473C249.188 238.806 250.754 241.374 251.688 244.175L242.187 247.375C241.053 244.375 239.119 241.974 236.386 240.174C233.652 238.307 230.285 237.373 226.284 237.373C222.084 237.373 218.749 238.374 216.282 240.374C213.882 242.374 212.682 245.108 212.682 248.575C212.682 251.509 213.615 253.776 215.482 255.376C217.416 256.91 219.983 258.077 223.184 258.877L231.284 260.877C237.818 262.477 242.853 265.144 246.387 268.878C249.987 272.545 251.788 276.58 251.788 280.98C251.788 284.781 250.821 288.215 248.888 291.282C247.021 294.283 244.22 296.683 240.486 298.483C236.819 300.217 232.285 301.083 226.884 301.083C223.15 301.083 219.75 300.65 216.683 299.783C213.682 298.916 211.048 297.749 208.781 296.282C206.581 294.749 204.747 293.049 203.28 291.182C201.813 289.315 200.78 287.348 200.18 285.281L209.682 282.181C210.682 284.914 212.582 287.281 215.382 289.281C218.182 291.282 221.616 292.315 225.684 292.382C230.618 292.382 234.485 291.415 237.285 289.481C240.152 287.481 241.586 284.847 241.586 281.58C241.586 278.58 240.353 276.146 237.886 274.279C235.419 272.346 232.151 270.878 228.084 269.878L219.982 267.778C216.782 266.912 213.849 265.677 211.182 264.077C208.581 262.477 206.514 260.444 204.98 257.977C203.447 255.51 202.68 252.542 202.68 249.075C202.68 242.674 204.747 237.673 208.881 234.072C213.082 230.472 219.117 228.672 226.984 228.672Z" fill="#151927"></path>
<path fill-rule="evenodd" clip-rule="evenodd" d="M305.627 228.672C312.428 228.672 318.429 230.239 323.63 233.373C328.831 236.44 332.898 240.707 335.832 246.175C338.766 251.576 340.232 257.81 340.232 264.878C340.232 271.946 338.766 278.213 335.832 283.681C332.898 289.148 328.831 293.415 323.63 296.482C318.496 299.55 312.561 301.083 305.827 301.083C299.026 301.083 292.992 299.55 287.725 296.482C282.457 293.415 278.323 289.148 275.322 283.681C272.389 278.213 270.922 271.946 270.922 264.878C270.922 257.81 272.389 251.576 275.322 246.175C278.323 240.707 282.424 236.44 287.625 233.373C292.826 230.239 298.826 228.672 305.627 228.672ZM305.627 237.673C300.826 237.673 296.559 238.84 292.825 241.174C289.091 243.507 286.158 246.741 284.024 250.875C281.957 254.942 280.924 259.61 280.924 264.878C280.924 270.212 281.99 274.912 284.124 278.979C286.258 283.047 289.192 286.247 292.926 288.581C296.726 290.915 301.027 292.082 305.827 292.082C310.628 292.082 314.862 290.915 318.529 288.581C322.197 286.247 325.064 283.047 327.131 278.979C329.198 274.912 330.231 270.212 330.231 264.878C330.231 259.61 329.165 254.942 327.031 250.875C324.964 246.741 322.063 243.508 318.329 241.174C314.662 238.84 310.428 237.673 305.627 237.673Z" fill="#151927"></path>
<path fill-rule="evenodd" clip-rule="evenodd" d="M454.361 228.672C461.162 228.672 467.163 230.239 472.364 233.373C477.565 236.44 481.633 240.707 484.566 246.175C487.5 251.576 488.967 257.81 488.967 264.878C488.967 271.946 487.5 278.213 484.566 283.681C481.633 289.148 477.565 293.415 472.364 296.482C467.23 299.55 461.296 301.083 454.562 301.083C447.761 301.083 441.726 299.55 436.459 296.482C431.191 293.415 427.057 289.148 424.057 283.681C421.123 278.213 419.656 271.946 419.656 264.878C419.656 257.81 421.123 251.576 424.057 246.175C427.057 240.707 431.159 236.44 436.359 233.373C441.56 230.239 447.561 228.672 454.361 228.672ZM454.361 237.673C449.561 237.673 445.293 238.84 441.56 241.174C437.826 243.507 434.892 246.741 432.759 250.875C430.692 254.942 429.658 259.61 429.658 264.878C429.658 270.212 430.725 274.912 432.858 278.979C434.992 283.047 437.926 286.247 441.66 288.581C445.461 290.915 449.761 292.082 454.562 292.082C459.362 292.082 463.596 290.915 467.264 288.581C470.931 286.247 473.798 283.047 475.865 278.979C477.932 274.912 478.966 270.212 478.966 264.878C478.966 259.61 477.899 254.942 475.766 250.875C473.699 246.741 470.797 243.508 467.063 241.174C463.396 238.84 459.162 237.673 454.361 237.673Z" fill="#151927"></path>
<path d="M1113.47 228.672C1118 228.672 1121.94 229.405 1125.27 230.872C1128.6 232.272 1131.34 234.139 1133.47 236.473C1135.67 238.806 1137.24 241.374 1138.17 244.175L1128.67 247.375C1127.54 244.375 1125.6 241.974 1122.87 240.174C1120.14 238.307 1116.77 237.373 1112.77 237.373C1108.57 237.373 1105.23 238.374 1102.77 240.374C1100.37 242.374 1099.17 245.108 1099.17 248.575C1099.17 251.509 1100.1 253.776 1101.97 255.376C1103.9 256.91 1106.47 258.077 1109.67 258.877L1117.77 260.877C1124.3 262.477 1129.34 265.144 1132.87 268.878C1136.47 272.545 1138.27 276.58 1138.27 280.98C1138.27 284.781 1137.31 288.215 1135.37 291.282C1133.51 294.283 1130.7 296.683 1126.97 298.483C1123.3 300.217 1118.77 301.083 1113.37 301.083C1109.63 301.083 1106.23 300.65 1103.17 299.783C1100.17 298.916 1097.53 297.749 1095.27 296.282C1093.07 294.749 1091.23 293.049 1089.76 291.182C1088.3 289.315 1087.26 287.348 1086.66 285.281L1096.17 282.181C1097.17 284.914 1099.07 287.281 1101.87 289.281C1104.67 291.282 1108.1 292.315 1112.17 292.382C1117.1 292.382 1120.97 291.415 1123.77 289.481C1126.64 287.481 1128.07 284.847 1128.07 281.58C1128.07 278.58 1126.84 276.146 1124.37 274.279C1121.9 272.346 1118.64 270.878 1114.57 269.878L1106.47 267.778C1103.27 266.912 1100.33 265.677 1097.67 264.077C1095.07 262.477 1093 260.444 1091.46 257.977C1089.93 255.51 1089.16 252.542 1089.16 249.075C1089.16 242.674 1091.23 237.673 1095.37 234.072C1099.57 230.472 1105.6 228.672 1113.47 228.672Z" fill="#151927"></path>
<path d="M373.263 290.883H405.768V299.884H363.461V229.873H373.263V290.883Z" fill="#151927"></path>
<path d="M588.731 238.874H556.427V259.678H585.531V268.479H556.427V290.883H588.932V299.884H546.625V229.873H588.731V238.874Z" fill="#151927"></path>
<path d="M665.419 283.481V229.873H675.32V299.884H665.419L625.513 245.775V299.884H615.711V229.873H625.812L665.419 283.481Z" fill="#151927"></path>
<path d="M749.17 238.874H727.266V299.884H717.364V238.874H695.461V229.873H749.17V238.874Z" fill="#151927"></path>
<path d="M811.341 238.874H779.036V259.678H808.141V268.479H779.036V290.883H811.541V299.884H769.234V229.873H811.341V238.874Z" fill="#151927"></path>
<path fill-rule="evenodd" clip-rule="evenodd" d="M861.924 229.873C866.591 229.873 870.692 230.807 874.226 232.674C877.826 234.474 880.627 237.007 882.627 240.274C884.694 243.475 885.728 247.209 885.728 251.477C885.728 255.677 884.628 259.412 882.428 262.679C880.294 265.946 877.36 268.513 873.626 270.38C872.983 270.69 872.326 270.97 871.655 271.227L888.528 299.884H877.427L861.863 273.069C861.585 273.076 861.306 273.08 861.024 273.08H848.122V299.884H838.32V229.873H861.924ZM848.122 264.078H862.824C865.225 264.078 867.359 263.545 869.226 262.479C871.159 261.345 872.693 259.844 873.826 257.978C875.026 256.044 875.626 253.877 875.626 251.477C875.626 247.743 874.326 244.709 871.726 242.375C869.125 240.041 865.758 238.874 861.624 238.874H848.122V264.078Z" fill="#151927"></path>
<path fill-rule="evenodd" clip-rule="evenodd" d="M935.018 229.873C939.685 229.873 943.786 230.84 947.319 232.773C950.92 234.64 953.72 237.274 955.721 240.675C957.788 244.009 958.821 247.91 958.821 252.377C958.821 256.711 957.888 260.578 956.021 263.979C954.155 267.379 951.554 270.046 948.22 271.979C944.953 273.913 941.185 274.88 936.918 274.88H921.216V299.884H911.414V229.873H935.018ZM921.216 265.778H936.818C940.352 265.778 943.253 264.545 945.52 262.078C947.786 259.544 948.92 256.311 948.92 252.377C948.92 248.31 947.586 245.042 944.919 242.575C942.319 240.108 938.985 238.874 934.918 238.874H921.216V265.778Z" fill="#151927"></path>
<path fill-rule="evenodd" clip-rule="evenodd" d="M1003.63 229.873C1008.29 229.873 1012.39 230.807 1015.93 232.674C1019.53 234.474 1022.33 237.007 1024.33 240.274C1026.4 243.475 1027.43 247.209 1027.43 251.477C1027.43 255.677 1026.33 259.412 1024.13 262.679C1022 265.946 1019.06 268.513 1015.33 270.38C1014.69 270.69 1014.03 270.97 1013.36 271.227L1030.23 299.884H1019.13L1003.57 273.069C1003.29 273.076 1003.01 273.08 1002.73 273.08H989.825V299.884H980.023V229.873H1003.63ZM989.825 264.078H1004.53C1006.93 264.078 1009.06 263.545 1010.93 262.479C1012.86 261.345 1014.4 259.844 1015.53 257.978C1016.73 256.044 1017.33 253.877 1017.33 251.477C1017.33 247.743 1016.03 244.709 1013.43 242.375C1010.83 240.041 1007.46 238.874 1003.33 238.874H989.825V264.078Z" fill="#151927"></path>
<path d="M1062.92 299.884H1053.12V229.873H1062.92V299.884Z" fill="#151927"></path>
<path d="M1204.11 238.874H1171.81V259.678H1200.91V268.479H1171.81V290.883H1204.31V299.884H1162.01V229.873H1204.11V238.874Z" fill="#151927"></path>
</svg>